<svg width="38" height="38" viewBox="0 0 38 38" fill="none" xmlns="http://www.w3.org/2000/svg">
<path d="M28.5527 12.8276C25.0161 12.8276 22.1389 9.95041 22.1389 6.41382C22.1389 2.87723 25.0161 0 28.5527 0C32.0893 0 34.9665 2.87723 34.9665 6.41382C34.9665 9.95041 32.0893 12.8276 28.5527 12.8276ZM28.5527 2.97713C26.6745 2.97713 25.136 4.51565 25.136 6.39384C25.136 8.27203 26.6745 9.81054 28.5527 9.81054C30.4309 9.81054 31.9694 8.27203 31.9694 6.39384C31.9694 4.51565 30.4309 2.97713 28.5527 2.97713Z" fill="#292D32"/>
<path d="M6.41384 12.8276C2.87725 12.8276 0 9.95041 0 6.41382C0 2.87723 2.87725 0 6.41384 0C9.95043 0 12.8276 2.87723 12.8276 6.41382C12.8276 9.95041 9.95043 12.8276 6.41384 12.8276ZM6.41384 2.97713C4.53565 2.97713 2.99711 4.51565 2.99711 6.39384C2.99711 8.27203 4.53565 9.81054 6.41384 9.81054C8.29203 9.81054 9.83052 8.27203 9.83052 6.39384C9.83052 4.51565 8.31201 2.97713 6.41384 2.97713Z" fill="#292D32"/>
<path d="M28.5527 37.4241C25.0161 37.4241 22.1389 34.5468 22.1389 31.0103C22.1389 27.4737 25.0161 24.5964 28.5527 24.5964C32.0893 24.5964 34.9665 27.4737 34.9665 31.0103C34.9665 34.5468 32.0893 37.4241 28.5527 37.4241ZM28.5527 27.5736C26.6745 27.5736 25.136 29.1121 25.136 30.9903C25.136 32.8685 26.6745 34.407 28.5527 34.407C30.4309 34.407 31.9694 32.8685 31.9694 30.9903C31.9694 29.1121 30.4309 27.5736 28.5527 27.5736Z" fill="#292D32"/>
<path d="M6.41384 37.4241C2.87725 37.4241 0 34.5468 0 31.0103C0 27.4737 2.87725 24.5964 6.41384 24.5964C9.95043 24.5964 12.8276 27.4737 12.8276 31.0103C12.8276 34.5468 9.95043 37.4241 6.41384 37.4241ZM6.41384 27.5736C4.53565 27.5736 2.99711 29.1121 2.99711 30.9903C2.99711 32.8685 4.53565 34.407 6.41384 34.407C8.29203 34.407 9.83052 32.8685 9.83052 30.9903C9.83052 29.1121 8.31201 27.5736 6.41384 27.5736Z" fill="#292D32"/>
</svg>
