<svg width="50" height="50" viewBox="0 0 50 50" fill="none" xmlns="http://www.w3.org/2000/svg">
<path d="M25 12.5C23.4548 12.5 21.9444 12.9582 20.6596 13.8166C19.3749 14.6751 18.3735 15.8952 17.7822 17.3228C17.1909 18.7503 17.0362 20.3212 17.3376 21.8366C17.6391 23.3521 18.3831 24.7442 19.4757 25.8368C20.5683 26.9294 21.9604 27.6734 23.4759 27.9749C24.9913 28.2763 26.5622 28.1216 27.9897 27.5303C29.4173 26.939 30.6374 25.9377 31.4959 24.6529C32.3543 23.3681 32.8125 21.8577 32.8125 20.3125C32.8125 18.2405 31.9894 16.2534 30.5243 14.7882C29.0591 13.3231 27.072 12.5 25 12.5ZM25 25C24.0729 25 23.1666 24.7251 22.3958 24.21C21.6249 23.6949 21.0241 22.9629 20.6693 22.1063C20.3145 21.2498 20.2217 20.3073 20.4026 19.398C20.5834 18.4887 21.0299 17.6535 21.6854 16.9979C22.341 16.3424 23.1762 15.8959 24.0855 15.7151C24.9948 15.5342 25.9373 15.627 26.7938 15.9818C27.6504 16.3366 28.3825 16.9374 28.8975 17.7083C29.4126 18.4791 29.6875 19.3854 29.6875 20.3125C29.6861 21.5553 29.1918 22.7467 28.313 23.6255C27.4342 24.5043 26.2428 24.9986 25 25Z" fill="black"/>
<path d="M25 3.125C20.6735 3.125 16.4442 4.40795 12.8469 6.8116C9.24959 9.21526 6.44581 12.6317 4.79015 16.6288C3.13448 20.6259 2.70128 25.0243 3.54533 29.2676C4.38938 33.5109 6.47278 37.4087 9.53205 40.468C12.5913 43.5272 16.4891 45.6106 20.7324 46.4547C24.9757 47.2987 29.3741 46.8655 33.3712 45.2099C37.3683 43.5542 40.7848 40.7504 43.1884 37.1531C45.5921 33.5558 46.875 29.3265 46.875 25C46.8685 19.2004 44.5617 13.6402 40.4608 9.53926C36.3598 5.43831 30.7996 3.13153 25 3.125ZM15.625 41.2133V39.0625C15.6264 37.8197 16.1207 36.6282 16.9995 35.7494C17.8782 34.8707 19.0697 34.3764 20.3125 34.375H29.6875C30.9303 34.3764 32.1218 34.8707 33.0006 35.7494C33.8793 36.6282 34.3736 37.8197 34.375 39.0625V41.2133C31.53 42.8746 28.2946 43.75 25 43.75C21.7055 43.75 18.4701 42.8746 15.625 41.2133ZM37.4883 38.9466C37.4572 36.897 36.6221 34.9416 35.1629 33.5019C33.7038 32.0622 31.7374 31.2535 29.6875 31.25H20.3125C18.2627 31.2535 16.2963 32.0622 14.8371 33.5019C13.3779 34.9416 12.5428 36.897 12.5117 38.9466C9.67823 36.4165 7.68006 33.0854 6.78178 29.3945C5.88351 25.7035 6.12751 21.8268 7.48148 18.2776C8.83544 14.7284 11.2355 11.6742 14.3639 9.51932C17.4922 7.36448 21.2013 6.21067 25 6.21067C28.7987 6.21067 32.5078 7.36448 35.6362 9.51932C38.7645 11.6742 41.1646 14.7284 42.5185 18.2776C43.8725 21.8268 44.1165 25.7035 43.2182 29.3945C42.32 33.0854 40.3218 36.4165 37.4883 38.9466Z" fill="black"/>
</svg>
