<svg width="30" height="30" viewBox="0 0 50 50" fill="none" xmlns="http://www.w3.org/2000/svg">
<path d="M17.7054 9.46607C15.2878 9.5601 13.1046 10.4226 11.9367 11.5908C11.3943 12.1333 10.5149 12.1333 9.97251 11.5909C9.43001 11.0487 9.42988 10.1693 9.97224 9.62676C11.7742 7.82454 14.7067 6.80287 17.5974 6.69037C20.507 6.57718 23.6835 7.37384 25.9081 9.59885C26.4503 10.1412 26.4503 11.0207 25.9078 11.563C25.3654 12.1054 24.486 12.1052 23.9436 11.5629C22.4284 10.0472 20.104 9.37274 17.7054 9.46607Z" fill="#333333"/>
<path fill-rule="evenodd" clip-rule="evenodd" d="M29.7002 31.8549C26.5565 34.5104 22.4929 36.1111 18.0556 36.1111C8.08376 36.1111 0 28.0274 0 18.0556C0 8.08376 8.08376 0 18.0556 0C28.0274 0 36.1111 8.08376 36.1111 18.0556C36.1111 22.4929 34.5104 26.5565 31.8549 29.7002L34.9225 29.1667L49.2053 43.4496C50.2649 44.5092 50.2649 46.2271 49.2053 47.2867L47.2867 49.2053C46.2271 50.2649 44.5092 50.2649 43.4496 49.2053L29.1667 34.9225L29.7002 31.8549ZM33.3334 18.0556C33.3334 26.4932 26.4932 33.3334 18.0556 33.3334C9.61792 33.3334 2.77778 26.4932 2.77778 18.0556C2.77778 9.61792 9.61792 2.77778 18.0556 2.77778C26.4932 2.77778 33.3334 9.61792 33.3334 18.0556ZM43.401 41.5736L33.9778 32.1504L32.4211 32.4211L32.1504 33.9778L41.6014 43.4288L43.401 41.5736ZM43.5659 45.3932L45.3681 47.1956L47.1956 45.3681L45.3655 43.5381L43.5659 45.3932Z" fill="#333333"/>
</svg>
